<svg xmlns="http://www.w3.org/2000/svg" viewBox="0 0 150 150" role="img" aria-label="아버지가 아들을 품에 안는 모습">
  <!-- warm glow -->
  <circle cx="75" cy="75" r="68" fill="#f7e6cf"/>
  <circle cx="75" cy="75" r="68" fill="none" stroke="#e6cfa6" stroke-width="1.5"/>

  <!-- Father: standing, taller (right) -->
  <path d="M77 143 L77 73 C77 62 84 56 92 56 C100 56 108 62 108 73 L108 143 Z" fill="#8a6230"/>
  <circle cx="92" cy="39" r="15" fill="#f0cb9e"/>
  <path d="M92 22 C106 22 110 35 108 47 C104 40 98 37 92 37 C86 37 80 40 76 47 C74 35 78 22 92 22 Z" fill="#5b3d1d"/>
  <path d="M79 46 C81 59 103 59 105 46 C105 56 99 65 92 65 C85 65 79 56 79 46 Z" fill="#5b3d1d"/>

  <!-- Son: standing, shorter (left), leaning into father -->
  <path d="M40 143 L40 87 C40 77 47 72 54 72 C61 72 68 77 68 87 L68 143 Z" fill="#c79a5c"/>
  <circle cx="54" cy="61" r="13" fill="#f6d6ae"/>
  <path d="M54 48 C65 48 68 56 67 64 C63 57 58 55 54 55 C50 55 45 57 41 64 C40 56 43 48 54 48 Z" fill="#33220f"/>

  <!-- son's arm around father's waist -->
  <path d="M60 85 C74 79 90 83 99 97" fill="none" stroke="#c79a5c" stroke-width="11" stroke-linecap="round"/>
  <!-- father's arm over son's shoulder & back (the embrace) -->
  <path d="M95 59 C78 51 56 57 47 79" fill="none" stroke="#8a6230" stroke-width="13" stroke-linecap="round"/>
</svg>
